<svg width="262" height="130" viewBox="0 0 262 130" fill="none" xmlns="http://www.w3.org/2000/svg">
<rect x="7" y="9.55078" width="88" height="111.059" fill="#20A2EB"/>
<path d="M117.053 0.851147L132.181 95.7672H134.133L167.073 9.14715L184.641 14.5152L207.089 96.4992H209.041L234.417 2.55915L254.181 7.92715L215.385 126.023L195.621 129.195L159.997 72.0992L137.061 126.023L112.905 129.195L66.7888 8.41515L117.053 0.851147Z" fill="white"/>
<path d="M101 20.0938V127.152H17V20.0938H59H101Z" fill="white" stroke="#0091DC" stroke-width="4"/>
<path d="M0 9.55078L11 17.6191V128.678L0 118.711V9.55078Z" fill="#0091DC"/>
<path d="M75 18.0938H90V38.9766L83 33.2812L75 38.9766V18.0938Z" fill="#0091DC"/>
</svg>
