<svg width="255" height="256" viewBox="0 0 255 256" fill="none" xmlns="http://www.w3.org/2000/svg">
<rect x="7" y="127" width="88" height="117" fill="#20A2EB"/>
<path d="M110.053 119.316L125.181 214.232H127.133L160.073 127.612L177.641 132.98L200.089 214.964H202.041L227.417 121.024L247.181 126.392L208.385 244.488L188.621 247.66L152.997 190.564L130.061 244.488L105.905 247.66L59.7888 126.88L110.053 119.316Z" fill="black"/>
<path d="M15 136H59H103V253H15V136Z" fill="white"/>
<path d="M0 127L11 135.5V252.5L0 242V127Z" fill="#0091DC"/>
<path d="M75 136H90V158L83 152L75 158V136Z" fill="#0091DC"/>
</svg>
